<svg width="363" height="224" viewBox="0 0 363 224" fill="none" xmlns="http://www.w3.org/2000/svg">
<rect x="264" y="90" width="98" height="44" fill="#D9D9D9"/>
<rect x="43" y="112" width="98" height="68" fill="#D9D9D9"/>
<rect x="266" y="90" width="51" height="44" fill="black"/>
<path d="M43.6758 0.0653692C67.5233 0.0439582 67.5233 0.0439582 77.4837 0.0394292C84.3728 0.0362717 91.2619 0.0325512 98.151 0.0252919C103.167 0.0200086 108.184 0.0165722 113.2 0.0153847C115.858 0.0146901 118.516 0.0130498 121.174 0.00920007C123.672 0.0056101 126.171 0.00447861 128.669 0.0052807C129.589 0.00513384 130.509 0.0040678 131.429 0.00204125C132.679 -0.000579492 133.929 2.55702e-05 135.18 0.00148395C135.881 0.000994246 136.582 0.000504544 137.305 0C138.857 0.0653692 138.857 0.0653692 139.389 0.596619C139.455 1.93775 139.488 3.26509 139.498 4.60706C139.503 5.02685 139.508 5.44664 139.514 5.87914C139.531 7.27327 139.544 8.66741 139.557 10.0616C139.568 11.0256 139.579 11.9896 139.59 12.9536C139.62 15.496 139.646 18.0384 139.672 20.5807C139.698 23.173 139.728 25.7653 139.757 28.3575C139.815 33.4476 139.869 38.5377 139.92 43.6279C140.726 43.6261 140.726 43.6261 141.548 43.6243C146.603 43.6135 151.658 43.6056 156.712 43.6003C159.311 43.5976 161.91 43.5938 164.509 43.5878C167.016 43.582 169.522 43.5788 172.029 43.5775C172.986 43.5765 173.944 43.5746 174.902 43.5717C176.24 43.5679 177.579 43.5673 178.917 43.5676C179.316 43.5656 179.715 43.5637 180.126 43.5618C182.87 43.5673 182.87 43.5673 184.055 44.1591C184.067 61.2636 184.076 78.3681 184.082 95.4725C184.082 97.4901 184.083 99.5077 184.084 101.525C184.084 102.128 184.084 102.128 184.084 102.743C184.087 109.253 184.091 115.764 184.096 122.275C184.101 128.952 184.104 135.629 184.105 142.306C184.105 146.428 184.108 150.551 184.112 154.674C184.115 157.83 184.116 160.987 184.115 164.144C184.115 165.442 184.116 166.741 184.118 168.039C184.121 169.804 184.12 171.57 184.119 173.335C184.121 174.115 184.121 174.115 184.123 174.91C184.122 175.381 184.121 175.851 184.12 176.336C184.12 176.743 184.121 177.151 184.121 177.572C184.055 178.565 184.055 178.565 183.523 179.628C168.959 179.628 154.394 179.628 139.389 179.628C139.41 193.94 139.41 193.94 139.437 208.253C139.439 211.016 139.439 211.016 139.439 212.308C139.44 213.213 139.442 214.119 139.445 215.025C139.449 216.394 139.449 217.762 139.449 219.131C139.452 219.74 139.452 219.74 139.455 220.362C139.449 223.13 139.449 223.13 138.857 223.722C137.632 223.773 136.406 223.786 135.18 223.786C134.596 223.786 134.596 223.786 134 223.787C132.687 223.788 131.373 223.785 130.059 223.782C129.121 223.782 128.184 223.782 127.246 223.782C124.692 223.782 122.137 223.779 119.583 223.775C116.917 223.772 114.251 223.772 111.584 223.771C106.532 223.77 101.479 223.765 96.4266 223.76C89.6016 223.753 82.7766 223.75 75.9516 223.747C65.193 223.742 54.4344 223.731 43.6758 223.722C43.6758 209.171 43.6758 194.62 43.6758 179.628C29.525 179.649 29.525 179.649 15.3743 179.676C12.6427 179.678 12.6427 179.678 11.3656 179.679C10.4701 179.679 9.57455 179.681 8.67904 179.684C7.32571 179.688 5.97242 179.688 4.61909 179.688C4.01671 179.691 4.0167 179.691 3.40215 179.694C0.665591 179.688 0.665591 179.688 0.0732207 179.097C0.0214994 178.377 0.00645982 177.655 0.00630712 176.934C0.00492048 176.465 0.0035329 175.996 0.00210424 175.513C0.0032904 174.992 0.00447649 174.471 0.0056986 173.934C0.00486909 173.385 0.004038 172.836 0.00318336 172.27C0.0010485 170.416 0.00274972 168.561 0.00441664 166.707C0.00369675 165.383 0.00275036 164.06 0.00159307 162.736C-0.000587291 159.506 -0.000257961 156.276 0.0012807 153.045C0.00247915 150.421 0.00264351 147.796 0.00206367 145.172C0.00198219 144.799 0.00190421 144.426 0.00182026 144.042C0.00165026 143.285 0.00147575 142.528 0.00130098 141.771C-0.000217099 134.662 0.00152986 127.553 0.00438418 120.444C0.00676001 114.338 0.00634914 108.232 0.00389736 102.126C0.00105495 95.0434 -6.99504e-05 87.9609 0.00156468 80.8785C0.00173407 80.1239 0.00189877 79.3694 0.00206367 78.6149C0.00218672 78.058 0.00218965 78.058 0.00231519 77.4898C0.00277526 74.8671 0.00199436 72.2445 0.000745195 69.6218C-0.000897536 66.0951 0.00026569 62.5684 0.00334969 59.0418C0.00405602 57.7433 0.00384336 56.4448 0.00267625 55.1463C0.00123599 53.3819 0.00303245 51.6176 0.0056986 49.8533C0.00391935 49.0717 0.00391942 49.0717 0.00210424 48.2743C0.00349088 47.8054 0.00487847 47.3365 0.00630712 46.8533C0.00639345 46.4455 0.00647781 46.0377 0.00656676 45.6176C0.0732197 44.6904 0.0732207 44.6904 0.604959 44.1591C1.94784 44.1086 3.27606 44.0924 4.61909 44.0988C5.04608 44.0987 5.47307 44.0987 5.913 44.0986C7.30156 44.099 8.69007 44.1031 10.0786 44.1072C10.9333 44.108 11.788 44.1086 12.6427 44.1089C15.8197 44.1117 18.9966 44.1191 22.1736 44.1259C29.2693 44.1369 36.365 44.1478 43.6758 44.1591C43.6758 29.6082 43.6758 15.0572 43.6758 0.0653692ZM43.6758 44.1591C43.6758 88.6885 43.6758 133.218 43.6758 179.097C45.9782 179.557 47.8393 179.693 50.1667 179.692C50.5468 179.692 50.9269 179.693 51.3185 179.693C52.5888 179.694 53.8592 179.691 55.1296 179.688C56.0415 179.688 56.9534 179.688 57.8653 179.688C60.3392 179.689 62.8131 179.685 65.287 179.682C67.873 179.678 70.4591 179.678 73.0451 179.677C77.9413 179.676 82.8376 179.671 87.7338 179.666C93.3083 179.66 98.8829 179.657 104.457 179.655C115.924 179.649 127.39 179.64 138.857 179.628C138.928 168.005 138.997 156.382 139.065 144.759C139.096 139.357 139.128 133.955 139.161 128.553C139.19 123.82 139.218 119.087 139.246 114.355C139.26 111.871 139.274 109.387 139.29 106.903C139.421 85.9879 139.389 65.0754 139.389 44.1591C107.803 44.1591 76.2181 44.1591 43.6758 44.1591Z" fill="black"/>
<path d="M222.34 0.0653687C268.489 0.0653687 314.639 0.0653687 362.187 0.0653687C362.187 14.6163 362.187 29.1672 362.187 44.1591C330.777 44.1591 299.367 44.1591 267.006 44.1591C267.006 88.8638 267.006 133.568 267.006 179.628C297.932 179.432 297.932 179.432 328.859 179.23C334.828 179.194 334.828 179.194 337.619 179.178C339.576 179.166 341.533 179.153 343.491 179.139C345.983 179.122 348.476 179.107 350.968 179.093C351.886 179.088 352.803 179.082 353.72 179.074C354.954 179.065 356.188 179.058 357.423 179.053C358.116 179.048 358.809 179.044 359.523 179.04C361.124 179.097 361.124 179.097 362.187 179.628C362.187 194.179 362.187 208.73 362.187 223.722C316.037 223.722 269.888 223.722 222.34 223.722C222.34 149.915 222.34 76.1085 222.34 0.0653687Z" fill="black"/>
</svg>
